<svg version="1.2" xmlns="http://www.w3.org/2000/svg" viewBox="0 0 1547 454" width="1547" height="454"><style>.a{fill:#d14f3d}.b{fill:#00b02e}</style><path class="a" d="m1382.9 452h-17.4v-50.1c0-6.8-1.9-11.6-3.9-14.5-2.9-2.9-6.7-4.8-12.5-4.8-7.7 0-12.5 2.9-16.4 6.7-3.8 4.9-4.8 11.6-4.8 22.2v40.5h-18.3v-81.9h14.4l2 10.6h0.9c2.9-3.9 5.8-6.8 10.6-8.7 4.9-1.9 9.7-2.9 15.5-2.9 20.2 0 29.9 9.7 29.9 29.9zm-111.9 0l-1.9-10.6h-1c-2.9 2.9-5.8 6.7-10.6 8.7-4.8 1.9-9.6 2.8-15.4 2.8-10.6 0-17.4-1.9-22.2-6.7-5.8-5.8-7.7-12.5-7.7-23.1v-53h17.4v50.1c0 6.7 1.9 11.6 3.8 14.4 2.9 2.9 6.8 4.9 12.6 4.9 7.7 0 12.5-2.9 16.3-6.8 2.9-4.8 4.9-11.5 4.9-22.1v-40.5h17.3v81.9zm-77.1-29.9c0 9.7-3.9 17.4-10.6 23.1-6.8 4.9-17.4 7.7-28.9 7.7-12.6 0-23.2-1.9-30.9-5.7v-16.4c4.8 1.9 10.6 3.8 16.4 5.8 4.8 0.9 10.6 1.9 15.4 1.9 6.8 0 12.6-1.9 15.5-3.9 3.8-2.8 4.8-6.7 4.8-10.6 0-4.8-1-7.7-3.9-10.5-3.8-2.9-9.6-5.8-19.3-9.7-10.6-3.8-17.3-8.6-21.2-13.5-3.8-5.7-6.7-11.5-6.7-19.2 0-8.7 3.8-15.4 10.6-21.2 5.8-4.8 14.4-7.7 26-7.7 9.7 0 20.3 2.9 30.9 6.7l-5.8 14.5q-14.5-5.8-26-5.8c-5.8 0-9.7 1-13.5 3.8-2.9 2.9-3.9 5.8-3.9 9.7 0 2.9 0 4.8 1.9 7.7 1 1.9 2.9 3.8 5.8 4.8 2.9 1.9 7.7 4.8 14.5 7.7 7.7 2.9 14.4 5.8 17.3 8.7 3.9 2.9 6.8 6.7 8.7 9.6 1.9 3.9 2.9 7.7 2.9 12.5zm-159.1 30.8c-10.6 0-18.3-2.8-23.1-7.7q-8.7-8.6-8.7-23.1c0-9.6 1.9-18.3 5.8-26.9 3.8-8.7 9.6-15.5 15.4-19.3 6.8-4.8 14.5-6.8 22.2-6.8 8.7 0 14.5 2 19.3 4.9 3.8 3.8 6.7 8.6 6.7 15.4 0 8.6-4.8 15.4-12.5 21.2-8.7 4.8-20.3 6.7-35.7 6.7h-2.9v2.9 1.9c0 5.8 1 9.7 3.9 12.5 2.9 2.9 6.7 4.9 12.5 4.9 3.9 0 6.8 0 10.6-1 3.9-1 7.7-2.9 12.6-4.8v13.5c-4.9 1.9-8.7 3.8-13.6 4.8-3.8 0.9-7.7 0.9-12.5 0.9zm10.6-71.2c-4.8 0-8.7 2.9-13.5 6.7-3.8 3.9-6.7 9.6-8.6 16.4h1.9c9.6 0 17.3-1 22.1-3.9 4.9-1.9 7.8-5.7 7.8-10.6 0-2.9-1-4.8-2-5.7-1.9-2-3.8-2.9-7.7-2.9zm-86.7 70.3l10.6-50.1c0.9-3.9 0.9-6.7 0.9-8.7 0-6.7-2.9-10.6-9.6-10.6-5.8 0-10.6 3.9-15.4 9.7-4.9 5.7-8.7 14.4-10.6 25l-7.8 34.7h-17.3l25.1-114.6h17.3l-4.8 19.2c-1 5.8-2.9 13.5-4.8 21.2l-2 5.8h1c3.9-4.8 8.7-8.7 12.5-11.6 3.9-1.9 8.7-2.9 13.5-2.9 6.8 0 11.6 2 15.4 5.8 3.9 3.9 4.9 8.7 4.9 15.4 0 3.9 0 8.7-1 13.5l-10.6 48.2zm-75.2-12.5q5.8 0 11.6-2.9v13.5c-2 0.9-3.9 0.9-6.8 1.9-2.9 0.9-6.7 0.9-9.6 0.9-13.5 0-20.3-5.7-20.3-18.3 0-2.8 1-5.7 1-9.6l9.6-41.4h-12.5l1.9-8.7 14.5-5.8 9.6-17.3h10.6l-3.8 18.3h20.2l-2.9 13.5h-20.2l-8.7 41.4c-0.9 2.9-0.9 5.8-0.9 6.8 0 2.8 0 3.8 0.9 5.7 2 1 3.9 2 5.8 2zm-110.9 12.5l10.6-50.1c1-3.9 1-6.7 1-8.7 0-6.7-2.9-10.6-9.6-10.6-5.8 0-10.6 3.9-15.5 9.7-4.8 5.7-8.6 14.4-10.6 25l-7.7 34.7h-17.3l24.1-114.6h18.3l-4.8 19.2c-1 5.8-2.9 13.5-4.9 21.2l-1.9 5.8h1c3.8-4.8 7.7-8.7 12.5-11.6 3.9-1.9 8.7-2.9 13.5-2.9 6.8 0 11.6 2 15.4 5.8 2.9 3.9 4.9 8.7 4.9 15.4 0 3.9 0 8.7-1 13.5l-10.6 48.2zm-75.2-12.5q5.8 0 11.6-2.9v13.5c-2 0.9-3.9 0.9-6.8 1.9-2.9 0.9-6.8 0.9-9.6 0.9-13.5 0-20.3-5.7-20.3-18.3 0-2.8 1-5.7 1-9.6l9.6-41.4h-12.5l1.9-8.7 14.5-5.8 9.6-17.3h10.6l-3.8 18.3h20.2l-2.9 13.5h-20.2l-9.7 41.4c0 2.9-0.9 5.8-0.9 6.8 0 2.8 0.9 3.8 1.9 5.7 1.9 1 3.8 2 5.8 2zm-55 12.5h-17.3l17.3-81.9h18.3zm3.9-102.1c0-2.9 1-5.8 2.9-7.7q2.9-2.9 8.7-2.9c1.9 0 3.8 1 5.8 1.9q2.9 1.5 2.9 5.8 0 5.8-2.9 8.7c-2 1.9-4.9 2.9-7.8 2.9-2.8 0-4.8-1-6.7-1.9-1.9-2-2.9-3.9-2.9-6.8zm-76.2 102.1l-1.9-46.2v-5.8-14.5c-0.9 2.9-1.9 5.8-3.8 9.7-1 2.9-9.7 22.1-26.1 56.8h-19.3l-3.8-81.9h17.3l1 47.2c0 4.8-1 10.6-1 18.3 3.9-8.6 5.8-15.4 8.7-20.2l20.3-45.3h19.2l1 44.3v3.9 17.3h1c0.9-1.9 1.9-5.7 3.8-11.5 2-4.8 3.9-9.7 4.9-11.6 0.9-2.9 7.7-17.3 19.2-42.4h17.4l-38.6 81.9zm-142.7 1c-12.5 0-23.1-3.9-29.9-10.6-7.7-7.7-11.5-18.3-11.5-30.8 0-13.5 3.8-24.1 10.6-31.8 6.7-6.8 15.4-10.6 27.9-10.6 10.6 0 19.3 2.9 25.1 9.6 6.8 6.7 9.6 15.4 9.6 27v8.6h-54.9c0 8.7 2.9 14.5 6.7 18.3 3.9 4.9 9.7 6.8 17.4 6.8 4.8 0 9.6-1 13.5-1 3.9-0.9 8.7-2.9 13.5-4.8v13.5c-4.8 1.9-8.7 3.8-13.5 4.8-3.9 1-8.7 1-14.5 1zm-2.9-71.3c-5.7 0-10.6 1.9-13.5 5.8-3.8 2.9-5.7 8.6-6.7 14.4h37.6c0-5.8-1.9-11.5-4.8-14.4-2.9-3.9-7.7-5.8-12.6-5.8zm-57.8 70.3h-17.4v-50.1c0-6.7-0.9-11.5-3.8-14.4-2.9-2.9-6.8-4.9-12.5-4.9-6.8 0-12.6 2.9-16.4 6.8-2.9 4.8-4.9 11.6-4.9 22.2v40.4h-17.3v-81.9h13.5l2.9 10.6h0.9c2-3.8 5.8-6.7 10.7-8.6 3.8-2 9.6-2.9 14.4-2.9 20.3 0 29.9 9.6 29.9 29.8zm-94.5-53.9c0 17.3-3.8 30.8-12.5 40.5-9.7 9.6-22.2 14.4-38.6 14.4q-24.6 0-37.6-14.4c-8.7-9.7-13.5-23.2-13.5-40.5 0-18.3 4.8-31.8 13.5-41.4 8.7-9.7 21.2-14.5 38.6-14.5q23.1 0 37.6 14.5c8.7 9.6 12.5 23.1 12.5 41.4zm-82.9 0c0 12.5 2.9 23.1 7.7 29.9 5.8 6.7 13.5 10.6 24.1 10.6 10.6 0 19.3-3.9 24.1-10.6 5.8-6.8 8.7-16.4 8.7-29.9 0-13.5-2.9-23.1-8.7-29.9-4.8-7.7-12.5-10.6-23.1-10.6-11.6 0-19.3 2.9-25.1 10.6-4.8 6.8-7.7 16.4-7.7 29.9z"/><path fill-rule="evenodd" class="b" d="m65.9 262.2h-64.6l17.3-262h64.6l-8.6 136.8 81.9-136.8h67.5l-9.6 136.8 75.2-136.8h58.8l-141.8 262h-67.4l8.6-135.8zm705.8 0h-62.7l67.5-262h148.4c4.9 0 9.7 0.9 12.6 0.9 36.6 6.8 59.8 39.5 53 79-7.7 42.4-47.2 77.1-89.7 79l57.9 103.1h-74.2l-77.2-137.8zm54-209l-13.5 54h82c15.4 0 29.9-12.6 32.7-27 3.9-14.5-4.8-27-20.2-27z"/><path fill-rule="evenodd" class="b" d="m970.2 262.2l67.5-262h243l-15.5 59.7h-182.2l-11.6 45.3h181.3l-13.5 55.9h-182.2l-11.6 43.3h182.2l-15.4 57.8zm-511.9 0h-60.8v-49.1h-64.6l-27.9 49.1h-66.5l143.6-262h76.2zm-60.8-102.1v-65.5l-35.6 65.5z"/><path fill-rule="evenodd" class="b" d="m630.9 213.1h-64.6l-27 49.1h-67.5l143.6-262h76.2v262h-60.7zm0-53v-65.5l-35.7 65.5zm673.9-159.9h242l-14.5 59.7h-181.2l-12.6 45.3h181.3l-13.5 55.9h-181.3l-11.5 43.3h181.2l-7.7 29.9-6.7 27.9h-243zm-1304.5 262v21.2h1479.9v-21.2z"/></svg>